<mxfile host="Electron" agent="Mozilla/5.0 (Windows NT 10.0; Win64; x64) AppleWebKit/537.36 (KHTML, like Gecko) draw.io/26.0.4 Chrome/128.0.6613.186 Electron/32.2.5 Safari/537.36" version="26.0.4">
  <diagram name="Page-1" id="ImO7pQp_gJgzQPRzmuX2">
    <mxGraphModel dx="1430" dy="825" grid="1" gridSize="10" guides="1" tooltips="1" connect="1" arrows="1" fold="1" page="1" pageScale="1" pageWidth="1600" pageHeight="1200" math="0" shadow="0">
      <root>
        <mxCell id="0" />
        <mxCell id="1" parent="0" />
        <mxCell id="TXEnXINuF7naIZXelbQ_-22" value="&lt;b&gt;&lt;font style=&quot;font-size: 24px;&quot;&gt;Bob&#39;s Computer&lt;/font&gt;&lt;/b&gt;" style="verticalLabelPosition=bottom;html=1;verticalAlign=top;align=center;strokeColor=#666666;fillColor=#f5f5f5;shape=mxgraph.azure.laptop;pointerEvents=1;fontColor=default;" parent="1" vertex="1">
          <mxGeometry x="800" y="560" width="240" height="160" as="geometry" />
        </mxCell>
        <mxCell id="TXEnXINuF7naIZXelbQ_-32" value="&lt;b&gt;&lt;font style=&quot;font-size: 24px; background-color: light-dark(#ffffff, var(--ge-dark-color, #121212));&quot;&gt;Alice&#39;s Computer&lt;/font&gt;&lt;/b&gt;" style="verticalLabelPosition=bottom;html=1;verticalAlign=top;align=center;strokeColor=#666666;fillColor=#f5f5f5;shape=mxgraph.azure.laptop;pointerEvents=1;fontColor=default;" parent="1" vertex="1">
          <mxGeometry x="398.75" y="560" width="240" height="160" as="geometry" />
        </mxCell>
        <mxCell id="TXEnXINuF7naIZXelbQ_-30" value="" style="endArrow=classic;startArrow=classic;html=1;rounded=0;strokeWidth=4;" parent="1" source="TXEnXINuF7naIZXelbQ_-26" edge="1">
          <mxGeometry width="100" height="100" relative="1" as="geometry">
            <mxPoint x="750" y="660" as="sourcePoint" />
            <mxPoint x="592.1590909090908" y="560" as="targetPoint" />
          </mxGeometry>
        </mxCell>
        <mxCell id="TXEnXINuF7naIZXelbQ_-31" value="" style="endArrow=classic;startArrow=classic;html=1;rounded=0;strokeWidth=4;" parent="1" source="TXEnXINuF7naIZXelbQ_-22" target="TXEnXINuF7naIZXelbQ_-26" edge="1">
          <mxGeometry width="100" height="100" relative="1" as="geometry">
            <mxPoint x="670" y="490" as="sourcePoint" />
            <mxPoint x="600" y="570" as="targetPoint" />
          </mxGeometry>
        </mxCell>
        <mxCell id="TXEnXINuF7naIZXelbQ_-11" value="&lt;font style=&quot;font-size: 18px;&quot;&gt;&lt;span&gt;/home/alice/&lt;/span&gt;&lt;/font&gt;&lt;div&gt;&lt;font style=&quot;font-size: 18px;&quot;&gt;&lt;span&gt;climate-analysis&lt;/span&gt;&lt;/font&gt;&lt;/div&gt;" style="verticalLabelPosition=bottom;html=1;verticalAlign=top;align=center;shape=mxgraph.azure.git_repository;fillColor=#DE4C36;strokeColor=none;fontFamily=Lucida Console;fontStyle=0" parent="1" vertex="1">
          <mxGeometry x="498.75" y="580" width="40" height="40" as="geometry" />
        </mxCell>
        <mxCell id="TXEnXINuF7naIZXelbQ_-2" value="&lt;b&gt;GitHub&lt;/b&gt;" style="dashed=0;outlineConnect=0;html=1;align=left;labelPosition=right;verticalLabelPosition=middle;verticalAlign=middle;shape=mxgraph.weblogos.github;fontSize=24;fillColor=#000000;strokeColor=#000000;" parent="1" vertex="1">
          <mxGeometry x="659.38" y="300" width="41.25" height="40" as="geometry" />
        </mxCell>
        <mxCell id="TXEnXINuF7naIZXelbQ_-13" value="&lt;font style=&quot;font-size: 18px;&quot;&gt;&lt;span&gt;C:/Users/Bob/&lt;/span&gt;&lt;/font&gt;&lt;div&gt;&lt;font style=&quot;font-size: 18px;&quot;&gt;&lt;span&gt;climate-analysis&lt;/span&gt;&lt;/font&gt;&lt;/div&gt;" style="verticalLabelPosition=bottom;html=1;verticalAlign=top;align=center;strokeColor=none;fillColor=#DE4C36;shape=mxgraph.azure.git_repository;fontFamily=Lucida Console;fontStyle=0" parent="1" vertex="1">
          <mxGeometry x="900" y="580" width="40" height="40" as="geometry" />
        </mxCell>
        <mxCell id="TXEnXINuF7naIZXelbQ_-26" value="" style="html=1;verticalLabelPosition=bottom;align=center;labelBackgroundColor=#ffffff;verticalAlign=top;strokeWidth=2;shadow=0;dashed=0;shape=mxgraph.ios7.icons.cloud;fillColor=none;fontColor=default;" parent="1" vertex="1">
          <mxGeometry x="600" y="340" width="241.25" height="140" as="geometry" />
        </mxCell>
        <mxCell id="TXEnXINuF7naIZXelbQ_-15" value="&lt;span style=&quot;font-size: 18px;&quot;&gt;&lt;span&gt;github.com:alice/&lt;/span&gt;&lt;/span&gt;&lt;div&gt;&lt;span style=&quot;font-size: 18px;&quot;&gt;&lt;span&gt;climate-analysis&lt;/span&gt;&lt;/span&gt;&lt;/div&gt;" style="verticalLabelPosition=bottom;html=1;verticalAlign=top;align=center;strokeColor=none;fillColor=#DE4C36;shape=mxgraph.azure.git_repository;fontColor=default;fontFamily=Lucida Console;fontStyle=0" parent="1" vertex="1">
          <mxGeometry x="700.63" y="380" width="40" height="40" as="geometry" />
        </mxCell>
      </root>
    </mxGraphModel>
  </diagram>
</mxfile>
